<?xml version="1.0" standalone="no"?>
<!DOCTYPE svg PUBLIC "-//W3C//DTD SVG 20010904//EN"
 "http://www.w3.org/TR/2001/REC-SVG-20010904/DTD/svg10.dtd">
<svg version="1.0" xmlns="http://www.w3.org/2000/svg"
 width="421.000000pt" height="421.000000pt" viewBox="0 0 421.000000 421.000000"
 preserveAspectRatio="xMidYMid meet">
<metadata>
Created by potrace 1.14, written by Peter Selinger 2001-2017
</metadata>
<g transform="translate(0.000000,421.000000) scale(0.100000,-0.100000)"
fill="#000000" stroke="none">
<path d="M2148 3655 c-3 -4 -55 -8 -115 -10 -159 -4 -277 -38 -375 -106 -14
-11 -58 -30 -98 -43 -89 -30 -151 -71 -200 -132 -20 -25 -65 -98 -62 -101 1
-2 2 -4 1 -5 -12 -41 -14 -99 -5 -163 6 -43 4 -55 -14 -77 -25 -32 -56 -101
-65 -143 -29 -142 -24 -412 9 -555 8 -33 11 -60 8 -60 -4 1 -23 14 -42 30 -41
36 -66 38 -102 6 -40 -34 -56 -81 -56 -164 0 -129 65 -379 113 -429 23 -26 26
-26 75 -15 32 7 58 9 68 3 10 -5 25 -38 35 -77 33 -127 105 -250 217 -371 93
-99 274 -253 299 -253 6 0 11 -5 11 -11 0 -5 5 -7 10 -4 6 3 10 3 10 -2 0 -7
72 -46 89 -49 3 0 20 -6 36 -13 46 -20 154 -22 221 -5 66 17 217 88 280 131
23 15 67 46 99 67 55 38 212 187 248 237 21 29 99 187 102 209 3 21 31 25 58
8 12 -8 36 -15 53 -16 26 -3 37 4 63 35 17 21 31 43 31 50 0 7 5 13 10 13 6 0
10 6 10 13 0 7 10 33 21 57 12 24 22 49 23 54 1 6 8 21 14 34 7 12 10 22 6 22
-3 0 -2 6 3 13 27 34 49 189 34 244 -10 35 -51 99 -51 78 0 -4 -6 -2 -13 4
-10 8 -23 6 -50 -8 l-36 -18 4 41 c2 22 15 86 29 141 44 175 50 218 50 346 1
101 -1 110 -32 169 -22 44 -32 77 -32 109 0 28 -8 58 -19 77 -14 23 -19 49
-18 95 1 91 -12 113 -168 271 -58 59 -204 154 -270 174 -5 2 -37 13 -70 25
-33 12 -69 23 -80 25 -11 2 -31 6 -45 9 -110 26 -311 51 -322 40z"/>
</g>
</svg>
